<svg width="480" height="47" viewBox="0 0 480 47" fill="none" xmlns="http://www.w3.org/2000/svg">
<path fill-rule="evenodd" clip-rule="evenodd" d="M12.886 32.3567H0V12.804H12.886V0H32.5639V12.804L27.9363 17.4163V4.61228H17.5278V17.4163H4.64181V27.7586H17.5278L12.886 32.3567Z" fill="#AEAEAF"/>
<path fill-rule="evenodd" clip-rule="evenodd" d="M32.5639 12.804H45.4641V32.3567H32.5639V45.1749H12.886V32.3567L17.5278 27.7586V40.5626H27.9363V27.7586H40.8223V17.4163H27.9363L32.5639 12.804Z" fill="#D8D8D8"/>
<path fill-rule="evenodd" clip-rule="evenodd" d="M12.2174 0L27.9369 40.5626H17.5284V32.3567V27.7586H12.8866H12.5733L1.82314 0H12.2174Z" fill="#AD281B"/>
<path fill-rule="evenodd" clip-rule="evenodd" d="M27.9363 13.6954L17.5278 40.5768H27.9363L36.9067 17.4305H32.5781H27.9363V13.6954ZM33.2331 0L32.5639 1.72607V12.8182H38.6722L43.6415 0H33.2331Z" fill="#9A2418"/>
<path fill-rule="evenodd" clip-rule="evenodd" d="M214.306 39.4166H227.093C235.337 39.4166 241.858 36.587 241.858 27.3624V21.4768C241.858 12.2664 235.337 9.42265 227.093 9.42265H214.306V39.4166ZM407.027 9.42265V47H395.109V9.42265H372.74V1.82512H429.382V9.42265H407.027ZM356.294 32.2152V1.82512H368.212V47H356.209L328.757 16.6099V47H316.839V1.82512H328.842L356.294 32.2152ZM202.389 47V1.82512H229.072C242.883 1.82512 253.776 7.13066 253.776 22.453V26.3721C253.776 41.6945 242.883 47 229.072 47H202.389ZM159.046 9.42265V19.3405H191.937V26.938H159.046V39.4025H195.227V47H147.128V1.82512H195.227V9.42265H159.046ZM291.338 26.938H276.615L266.52 47H254.36L277.085 1.82512H290.853L313.578 47H301.419L291.338 26.938ZM280.445 19.3546H287.522L283.99 12.323L280.445 19.3546ZM457.745 26.938H443.108V26.7824L432.927 47H420.767L443.506 1.82512H457.275L480 47H467.84L457.745 26.938ZM446.852 19.3546H453.929L450.398 12.323L446.852 19.3546ZM114.28 35.8655L131.409 1.82512H143.896L121.171 47H107.402L84.6632 1.82512H97.1505L114.28 35.8655Z" fill="#C0272D"/>
</svg>
